<?xml version="1.0" ?><svg viewBox="0 0 256 256" xmlns="http://www.w3.org/2000/svg"><rect fill="none" height="256" width="256"/><path d="M27.1,145.3a52,52,0,0,1,97.7-35.6Z" opacity="0.2"/><path d="M212.9,94.7a52,52,0,0,1-97.7,35.6Z" opacity="0.2"/><path d="M94.7,27.1a52,52,0,0,1,35.6,97.7Z" fill="none" stroke="#000" stroke-linecap="round" stroke-linejoin="round" stroke-width="16"/><path d="M27.1,145.3a52,52,0,0,1,97.7-35.6Z" fill="none" stroke="#000" stroke-linecap="round" stroke-linejoin="round" stroke-width="16"/><path d="M145.3,212.9a52,52,0,0,1-35.6-97.7Z" fill="none" stroke="#000" stroke-linecap="round" stroke-linejoin="round" stroke-width="16"/><path d="M212.9,94.7a52,52,0,0,1-97.7,35.6Z" fill="none" stroke="#000" stroke-linecap="round" stroke-linejoin="round" stroke-width="16"/><line fill="none" stroke="#000" stroke-linecap="round" stroke-linejoin="round" stroke-width="16" x1="164.5" x2="224" y1="164.5" y2="224"/></svg>